<?xml version="1.0" encoding="UTF-8"?>
<svg xmlns="http://www.w3.org/2000/svg" version="1.1" width="300" height="300" viewBox="0 0 300 300"><rect x="0" y="0" width="300" height="300" fill="#ffffff"/><g transform="scale(9.091)"><g transform="translate(0,0)"><path fill-rule="evenodd" d="M9 0L9 1L8 1L8 2L9 2L9 3L8 3L8 4L10 4L10 7L11 7L11 4L12 4L12 5L13 5L13 4L12 4L12 2L13 2L13 1L15 1L15 2L14 2L14 4L16 4L16 5L14 5L14 7L15 7L15 8L13 8L13 6L12 6L12 9L13 9L13 10L11 10L11 11L10 11L10 9L11 9L11 8L6 8L6 9L9 9L9 11L8 11L8 10L6 10L6 11L7 11L7 12L6 12L6 13L5 13L5 11L3 11L3 12L4 12L4 14L6 14L6 15L5 15L5 16L6 16L6 17L7 17L7 18L5 18L5 19L4 19L4 18L3 18L3 17L4 17L4 16L2 16L2 15L1 15L1 13L0 13L0 16L2 16L2 18L1 18L1 19L2 19L2 18L3 18L3 19L4 19L4 20L0 20L0 25L1 25L1 21L2 21L2 22L3 22L3 21L4 21L4 23L3 23L3 24L5 24L5 25L8 25L8 27L9 27L9 28L8 28L8 33L10 33L10 30L12 30L12 31L11 31L11 32L12 32L12 31L13 31L13 30L14 30L14 29L16 29L16 30L15 30L15 31L14 31L14 32L13 32L13 33L16 33L16 32L17 32L17 33L18 33L18 32L19 32L19 33L20 33L20 31L18 31L18 32L17 32L17 31L16 31L16 30L17 30L17 29L18 29L18 28L20 28L20 30L21 30L21 33L25 33L25 32L23 32L23 31L24 31L24 30L25 30L25 31L27 31L27 30L26 30L26 29L29 29L29 30L30 30L30 31L29 31L29 32L28 32L28 33L29 33L29 32L31 32L31 33L32 33L32 32L31 32L31 31L32 31L32 30L31 30L31 29L30 29L30 28L31 28L31 27L30 27L30 26L33 26L33 25L30 25L30 24L31 24L31 23L30 23L30 22L31 22L31 21L32 21L32 22L33 22L33 21L32 21L32 20L31 20L31 19L32 19L32 18L31 18L31 15L30 15L30 14L29 14L29 16L28 16L28 15L27 15L27 14L26 14L26 15L27 15L27 16L28 16L28 17L26 17L26 16L24 16L24 15L21 15L21 14L22 14L22 13L23 13L23 12L22 12L22 11L20 11L20 15L19 15L19 16L20 16L20 19L19 19L19 18L18 18L18 17L17 17L17 15L18 15L18 14L19 14L19 13L18 13L18 12L19 12L19 11L18 11L18 12L17 12L17 13L16 13L16 12L15 12L15 11L17 11L17 10L19 10L19 9L20 9L20 10L22 10L22 9L26 9L26 10L25 10L25 11L24 11L24 12L25 12L25 13L26 13L26 12L27 12L27 13L29 13L29 12L31 12L31 14L33 14L33 13L32 13L32 12L33 12L33 11L32 11L32 10L33 10L33 9L32 9L32 8L31 8L31 9L30 9L30 8L29 8L29 10L30 10L30 11L28 11L28 10L27 10L27 9L28 9L28 8L27 8L27 9L26 9L26 8L25 8L25 5L24 5L24 4L25 4L25 3L24 3L24 4L23 4L23 2L22 2L22 1L23 1L23 0L16 0L16 1L15 1L15 0L13 0L13 1L11 1L11 2L10 2L10 0ZM16 1L16 2L15 2L15 3L16 3L16 4L19 4L19 7L20 7L20 3L21 3L21 7L22 7L22 8L23 8L23 7L24 7L24 5L22 5L22 3L21 3L21 1ZM18 2L18 3L20 3L20 2ZM10 3L10 4L11 4L11 3ZM8 5L8 7L9 7L9 5ZM16 5L16 6L15 6L15 7L16 7L16 8L15 8L15 9L14 9L14 10L15 10L15 9L16 9L16 8L18 8L18 9L19 9L19 8L18 8L18 5ZM16 6L16 7L17 7L17 6ZM22 6L22 7L23 7L23 6ZM0 8L0 10L1 10L1 9L2 9L2 10L3 10L3 9L4 9L4 10L5 10L5 8ZM20 8L20 9L21 9L21 8ZM0 11L0 12L2 12L2 11ZM12 11L12 12L14 12L14 11ZM27 11L27 12L28 12L28 11ZM31 11L31 12L32 12L32 11ZM10 12L10 13L8 13L8 14L7 14L7 13L6 13L6 14L7 14L7 15L6 15L6 16L10 16L10 18L9 18L9 17L8 17L8 19L9 19L9 20L7 20L7 19L5 19L5 20L7 20L7 21L6 21L6 22L5 22L5 23L6 23L6 24L9 24L9 25L11 25L11 27L10 27L10 28L9 28L9 30L10 30L10 29L12 29L12 30L13 30L13 28L18 28L18 27L17 27L17 26L19 26L19 27L20 27L20 28L21 28L21 29L22 29L22 30L24 30L24 27L23 27L23 29L22 29L22 28L21 28L21 27L22 27L22 26L21 26L21 25L22 25L22 24L21 24L21 22L22 22L22 23L23 23L23 25L24 25L24 22L25 22L25 23L26 23L26 24L30 24L30 23L29 23L29 22L30 22L30 21L31 21L31 20L30 20L30 21L27 21L27 20L28 20L28 18L30 18L30 19L31 19L31 18L30 18L30 17L28 17L28 18L26 18L26 17L24 17L24 18L23 18L23 19L24 19L24 20L25 20L25 19L27 19L27 20L26 20L26 22L25 22L25 21L24 21L24 22L22 22L22 21L23 21L23 20L21 20L21 22L20 22L20 20L18 20L18 18L16 18L16 17L13 17L13 16L16 16L16 15L17 15L17 14L16 14L16 15L15 15L15 14L14 14L14 13L13 13L13 15L12 15L12 13L11 13L11 12ZM21 12L21 13L22 13L22 12ZM2 13L2 14L3 14L3 13ZM10 13L10 15L11 15L11 13ZM20 15L20 16L21 16L21 17L23 17L23 16L21 16L21 15ZM32 15L32 16L33 16L33 15ZM12 18L12 19L11 19L11 20L10 20L10 21L9 21L9 22L8 22L8 23L10 23L10 24L11 24L11 20L12 20L12 21L13 21L13 23L14 23L14 26L15 26L15 27L16 27L16 26L17 26L17 25L18 25L18 24L17 24L17 23L19 23L19 21L18 21L18 20L17 20L17 19L16 19L16 18L15 18L15 19L16 19L16 20L12 20L12 19L14 19L14 18ZM24 18L24 19L25 19L25 18ZM14 21L14 22L16 22L16 21ZM6 22L6 23L7 23L7 22ZM26 22L26 23L27 23L27 22ZM15 23L15 24L16 24L16 25L15 25L15 26L16 26L16 25L17 25L17 24L16 24L16 23ZM32 23L32 24L33 24L33 23ZM12 24L12 25L13 25L13 24ZM19 24L19 26L20 26L20 25L21 25L21 24ZM25 25L25 28L28 28L28 25ZM29 25L29 26L30 26L30 25ZM12 26L12 27L13 27L13 26ZM26 26L26 27L27 27L27 26ZM29 27L29 28L30 28L30 27ZM32 28L32 29L33 29L33 28ZM15 31L15 32L16 32L16 31ZM0 0L0 7L7 7L7 0ZM1 1L1 6L6 6L6 1ZM2 2L2 5L5 5L5 2ZM26 0L26 7L33 7L33 0ZM27 1L27 6L32 6L32 1ZM28 2L28 5L31 5L31 2ZM0 26L0 33L7 33L7 26ZM1 27L1 32L6 32L6 27ZM2 28L2 31L5 31L5 28Z" fill="#000000"/></g></g></svg>
